<?xml version="1.0" standalone="no"?>
<!DOCTYPE svg PUBLIC "-//W3C//DTD SVG 20010904//EN"
 "http://www.w3.org/TR/2001/REC-SVG-20010904/DTD/svg10.dtd">
<svg version="1.0" xmlns="http://www.w3.org/2000/svg"
 width="764.000000pt" height="764.000000pt" viewBox="0 0 764.000000 764.000000"
 preserveAspectRatio="xMidYMid meet">
<metadata>
Created by potrace 1.14, written by Peter Selinger 2001-2017
</metadata>
<g transform="translate(0.000000,764.000000) scale(0.100000,-0.100000)"
fill="#000000" stroke="none">
<path d="M3822 7612 c-15 -16 -72 -77 -127 -136 -55 -59 -127 -137 -160 -171
-33 -35 -101 -108 -152 -162 -50 -54 -110 -118 -133 -143 -24 -25 -88 -94
-144 -154 -55 -60 -117 -125 -136 -145 -31 -34 -207 -221 -290 -311 -18 -19
-83 -89 -145 -155 -62 -66 -127 -136 -145 -155 -18 -19 -89 -96 -159 -170
-177 -189 -235 -251 -267 -285 -15 -16 -80 -86 -144 -155 -65 -69 -132 -141
-150 -160 -18 -19 -62 -67 -99 -105 -36 -39 -115 -124 -176 -189 -60 -65 -128
-137 -150 -160 -22 -24 -87 -93 -145 -155 -58 -62 -129 -138 -158 -170 -29
-31 -91 -96 -137 -146 -46 -49 -109 -118 -142 -151 -32 -34 -105 -113 -163
-175 -58 -62 -114 -121 -124 -131 -11 -10 -16 -19 -10 -19 35 -5 6964 -3 6964
2 0 5 -27 35 -200 219 -59 63 -136 146 -171 184 -35 38 -85 91 -110 117 -25
27 -90 96 -145 155 -54 59 -117 126 -139 149 -22 23 -85 90 -140 150 -55 59
-129 139 -165 176 -36 37 -103 109 -150 160 -47 50 -101 108 -120 129 -19 21
-82 88 -140 150 -58 62 -125 134 -150 160 -25 26 -91 96 -146 156 -56 60 -117
125 -135 145 -19 20 -81 86 -139 149 -58 62 -130 138 -160 170 -47 50 -153
163 -280 300 -62 66 -255 273 -295 315 -22 23 -86 91 -141 151 -157 168 -160
172 -268 287 -55 60 -117 125 -136 146 -19 20 -61 64 -93 98 l-57 62 -28 -27z
m80 -585 c26 -28 73 -80 105 -113 32 -34 108 -115 168 -180 61 -64 121 -129
135 -144 14 -15 79 -84 145 -155 66 -70 136 -145 155 -165 19 -21 82 -88 140
-150 58 -62 121 -130 140 -150 19 -20 80 -85 135 -145 55 -59 123 -131 150
-160 28 -28 92 -97 143 -153 51 -55 112 -120 135 -145 23 -24 92 -97 152 -162
61 -65 126 -135 145 -155 19 -20 64 -68 100 -107 169 -181 298 -319 331 -354
19 -21 82 -88 140 -150 57 -62 112 -119 122 -128 9 -8 17 -18 17 -21 0 -6
-5207 -6 -5214 0 -5 5 20 32 210 235 132 142 156 167 294 315 58 62 121 130
140 150 19 20 80 85 135 144 55 59 123 132 150 161 28 29 100 105 160 170 61
65 128 137 150 160 22 23 83 88 135 145 52 56 113 122 135 145 22 23 87 93
145 155 58 62 131 140 163 172 31 33 57 61 57 62 0 2 24 28 53 58 28 30 81 86
117 125 57 61 225 241 345 368 22 24 78 84 125 134 47 50 87 91 90 91 3 0 26
-24 52 -53z"/>
<path d="M3744 6704 c-55 -58 -119 -127 -144 -153 -25 -27 -88 -94 -140 -151
-52 -56 -113 -121 -135 -145 -49 -52 -272 -290 -342 -365 -82 -88 -128 -138
-243 -260 -60 -63 -127 -135 -150 -160 -23 -25 -70 -74 -103 -111 -34 -36
-111 -118 -172 -183 -60 -65 -128 -137 -150 -160 -22 -24 -85 -91 -140 -150
-54 -59 -122 -131 -150 -160 -113 -120 -240 -258 -243 -265 -1 -5 4423 -7
4436 -2 3 1 -16 22 -128 140 -45 47 -275 294 -315 337 -55 59 -239 256 -280
299 -22 23 -87 93 -145 155 -58 63 -122 132 -143 154 -21 22 -82 87 -135 145
-53 57 -115 123 -137 146 -22 23 -69 73 -105 111 -198 212 -301 322 -325 349
-15 17 -83 89 -150 160 -68 72 -140 149 -161 172 -160 173 -190 203 -195 203
-4 0 -51 -48 -105 -106z m241 -209 c22 -23 76 -81 120 -129 44 -48 105 -113
135 -145 30 -31 102 -108 160 -170 58 -63 123 -133 145 -156 77 -82 262 -280
286 -306 22 -24 193 -207 286 -305 21 -22 90 -96 153 -164 63 -68 131 -140
150 -160 19 -20 76 -81 127 -136 50 -54 126 -135 167 -179 42 -44 76 -82 76
-85 0 -3 -873 -5 -1940 -5 -1067 0 -1940 3 -1940 6 0 7 8 15 185 204 62 66
130 139 152 161 21 23 85 92 143 154 58 62 120 129 139 149 18 20 86 92 151
161 64 69 129 139 144 155 15 17 55 59 89 96 123 130 305 325 337 359 18 19
89 96 159 170 69 74 154 164 187 200 34 36 78 83 98 105 20 22 64 68 97 102
l60 61 47 -51 c26 -28 65 -69 87 -92z"/>
<path d="M3837 6075 c-2 -5 -3 -45 -2 -87 0 -63 -2 -78 -15 -80 -92 -9 -175
-41 -231 -90 -30 -27 -66 -101 -68 -140 -1 -16 -2 -34 -3 -40 -2 -27 13 -90
28 -120 33 -64 115 -115 227 -139 31 -7 58 -15 58 -18 4 -18 5 -318 1 -328 -8
-24 -153 7 -244 53 l-68 33 -1 -24 c0 -14 -1 -38 -1 -55 0 -16 1 -36 1 -43 1
-12 90 -48 151 -61 42 -9 124 -19 143 -18 20 1 19 11 21 -118 l1 -105 38 -3
37 -3 0 110 c0 60 4 112 9 115 5 3 26 8 47 12 178 26 281 134 275 284 -2 52
-31 132 -55 154 -72 63 -178 110 -263 115 -10 1 -13 40 -13 162 l0 161 58 -7
c31 -3 89 -18 128 -31 39 -13 73 -24 75 -24 4 0 4 50 0 111 -1 10 -14 20 -33
24 -18 4 -40 9 -48 11 -15 4 -65 13 -105 19 -11 1 -32 3 -47 4 l-28 1 0 88 0
88 -35 0 c-19 0 -36 -5 -38 -11z m-2 -428 l1 -147 -40 6 c-104 15 -162 98
-131 187 21 61 89 108 149 104 19 -2 20 -11 21 -150z m177 -329 c80 -34 109
-109 75 -189 -15 -36 -61 -77 -94 -84 -10 -2 -30 -8 -44 -13 -15 -6 -30 -8
-33 -5 -3 4 -6 77 -6 164 l0 158 27 -5 c15 -3 48 -14 75 -26z"/>
<path d="M1210 3658 c0 -32 3 -58 8 -59 29 -4 1176 -3 1182 1 5 3 8 30 7 60
l-2 55 -597 0 -598 1 0 -58z"/>
<path d="M3248 3695 c-2 -11 -2 -38 0 -60 l4 -40 586 1 c323 1 592 2 598 3 7
1 11 22 10 59 l-1 57 -597 0 c-594 1 -597 1 -600 -20z"/>
<path d="M5292 3710 c-6 -4 -8 -61 -3 -105 1 -7 205 -9 593 -8 326 0 595 1
598 2 5 1 5 92 1 111 -1 7 -1180 7 -1189 0z"/>
<path d="M1210 3419 c0 -37 4 -58 13 -61 10 -3 1133 -2 1175 1 9 1 12 17 10
59 l-3 57 -597 0 -598 1 0 -57z"/>
<path d="M3248 3456 c-2 -12 -2 -39 0 -61 l4 -40 591 2 c326 0 595 2 598 2 4
1 6 27 5 59 l-1 57 -597 1 c-595 0 -597 0 -600 -20z"/>
<path d="M5289 3470 c-6 -32 -2 -110 6 -113 9 -2 1171 -1 1185 2 3 1 5 27 5
59 l0 58 -597 0 c-329 0 -598 -3 -599 -6z"/>
<path d="M1210 2148 c0 -960 2 -1088 15 -1088 19 -1 273 -1 325 0 l40 0 -2
1088 -3 1087 -187 1 -188 0 0 -1088z"/>
<path d="M1750 3076 c-1 -247 -1 -1968 0 -1993 0 -21 5 -23 60 -23 l60 0 -2
1088 -3 1087 -57 1 -58 1 0 -161z"/>
<path d="M2030 3176 c-3 -363 0 -2109 3 -2112 6 -7 357 -5 367 1 4 3 7 492 6
1087 l-1 1083 -187 1 -188 1 0 -61z"/>
<path d="M3249 3215 c-3 -81 -1 -2147 3 -2150 4 -4 209 -7 329 -6 l46 1 0
1088 -1 1088 -188 0 c-182 0 -188 -1 -189 -21z"/>
<path d="M3794 3232 c-5 -4 -9 -423 -9 -1089 l0 -1081 57 -4 c33 -2 59 1 61 7
2 6 4 496 3 1089 l-1 1080 -51 2 c-27 2 -54 0 -60 -4z"/>
<path d="M4069 3226 c-6 -62 -2 -2159 4 -2163 6 -4 144 -5 318 -4 l56 1 -1
1088 -1 1087 -187 1 c-131 1 -188 -2 -189 -10z"/>
<path d="M5289 3231 c-3 -16 -4 -2130 -1 -2151 l4 -25 164 2 c90 1 174 2 187
3 l22 0 0 1088 0 1087 -187 1 c-104 0 -188 -2 -189 -5z"/>
<path d="M5826 3230 c-1 -3 -2 -491 -2 -1085 l1 -1080 60 0 60 0 0 1086 0
1086 -58 -1 c-32 0 -60 -3 -61 -6z"/>
<path d="M6109 3236 c-6 -3 -2 -2169 4 -2173 7 -4 124 -5 322 -3 l50 0 0 1088
0 1088 -187 0 c-104 0 -189 0 -189 0z"/>
<path d="M1210 880 c0 -41 4 -60 13 -60 29 -1 1144 -1 1163 0 19 0 21 6 23 60
l2 59 -601 1 -600 0 0 -60z"/>
<path d="M3249 928 c-2 -41 -1 -100 3 -104 4 -3 863 -7 1155 -4 l42 0 -2 58
-2 57 -597 3 c-476 2 -598 0 -599 -10z"/>
<path d="M5289 927 c-1 -6 -2 -33 -3 -59 l-1 -48 85 0 c109 -1 987 -1 1060 0
l56 0 -1 60 0 60 -597 0 c-464 -1 -598 -3 -599 -13z"/>
<path d="M1210 640 c0 -50 3 -60 18 -60 42 0 997 0 1083 0 l97 0 1 60 1 60
-600 0 -600 0 0 -60z"/>
<path d="M3249 688 c-2 -40 -1 -100 3 -103 7 -7 1177 -7 1187 -1 5 4 8 30 8
59 l-2 52 -597 3 c-475 2 -598 0 -599 -10z"/>
<path d="M5289 698 c-1 -2 -2 -29 -3 -60 l-1 -58 62 0 c35 0 281 0 548 0 267
0 509 0 538 0 l53 0 -1 60 0 60 -597 0 c-329 0 -598 -1 -599 -2z"/>
<path d="M328 383 c-16 -4 -18 -22 -18 -194 l0 -189 3508 0 3507 0 0 188 0
187 -685 3 c-377 1 -786 2 -910 1 -124 0 -232 -1 -240 -1 -8 1 -188 1 -400 0
-212 0 -392 0 -400 1 -8 0 -116 0 -240 0 -124 -1 -232 -1 -240 -1 -8 0 -332 1
-720 0 -388 0 -712 0 -720 1 -8 0 -116 0 -240 0 -124 -1 -232 -1 -240 -1 -8 0
-332 1 -720 0 -388 0 -712 0 -720 1 -94 2 -465 -1 -468 -4 -3 -2 -12 -1 -21 4
-9 4 -24 6 -33 4z"/>
</g>
</svg>
