<?xml version="1.0" encoding="UTF-8" standalone="no"?>
<svg
   id="Layer_1"
   data-name="Layer 1"
   viewBox="0 0 97.980002 97.98"
   version="1.1"
   sodipodi:docname="card.svg"
   width="97.980003"
   height="97.980003"
   inkscape:version="1.1 (c4e8f9ed74, 2021-05-24)"
   xmlns:inkscape="http://www.inkscape.org/namespaces/inkscape"
   xmlns:sodipodi="http://sodipodi.sourceforge.net/DTD/sodipodi-0.dtd"
   xmlns="http://www.w3.org/2000/svg"
   xmlns:svg="http://www.w3.org/2000/svg">
  <sodipodi:namedview
     id="namedview40"
     pagecolor="#ffffff"
     bordercolor="#666666"
     borderopacity="1.0"
     inkscape:pageshadow="2"
     inkscape:pageopacity="0.0"
     inkscape:pagecheckerboard="0"
     showgrid="false"
     inkscape:zoom="6.7360684"
     inkscape:cx="47.728138"
     inkscape:cy="48.990002"
     inkscape:current-layer="Layer_1" />
  <defs
     id="defs7">
    <style
       id="style2">.cls-1{fill:none;}.cls-2{fill:#f85b30;}.cls-3{clip-path:url(#clip-path);}.cls-4{fill:#fff8e6;}.cls-5{fill:#18627d;}.cls-6{fill:#55d6d2;}</style>
    <clipPath
       id="clip-path">
      <circle
         class="cls-1"
         cx="51.470001"
         cy="48.990002"
         r="48.990002"
         transform="rotate(-67.36,51.472174,48.993873)"
         id="circle4" />
    </clipPath>
  </defs>
  <circle
     class="cls-2"
     cx="-26.356716"
     cy="64.073112"
     r="48.990002"
     transform="rotate(-67.36)"
     id="circle9" />
  <g
     class="cls-3"
     clip-path="url(#clip-path)"
     id="g37"
     transform="translate(-2.4777634,-0.00438678)">
    <path
       class="cls-4"
       d="M 40.12,44.52 29.94,34.47 12,65.63 l 0.8,0.93 a 16.15,16.15 0 0 0 3.87,3.5 c 2.19,1.59 6.74,4.21 8.89,5.85 l 5.77,-6.65 4.45,-2 L 37,64.32 36.91,48.5 Z"
       id="path11" />
    <path
       class="cls-4"
       d="M 40.12,44.52 29.94,34.47 13.13,63.66 c 1.3,0.17 3.82,-5.25 5,-4.6 a 50.78,50.78 0 0 1 6.49,4 c 2.28,1.74 4.55,3.33 6.91,4.85 L 37,64.32 36.91,48.5 Z"
       id="path13" />
    <path
       class="cls-4"
       d="m 29.94,34.47 16.65,-6.17 10.78,1 c 0,0 6,1.22 7.51,2.66 0.75,0.74 0.87,3.35 -2.62,3.65 a 30.64,30.64 0 0 1 -6.37,-0.69 l -6,0.52 -6.62,3.36 -3.15,5.72 -20.95,8.58 z"
       id="path15" />
    <path
       class="cls-4"
       d="m 49,62.59 c 0,0 9.81,-1.4 11.25,-2.33 3.1,-2 1.93,-5 -0.93,-5.16 l -17.06,-0.78 -3.58,-7.09 1.46,-2.71 -15,5.1 -1.6,14.07 7.8,5.57 z"
       id="path17" />
    <polygon
       class="cls-5"
       points="18.72,95.79 31.21,75.6 10.24,60.99 0,74.69 "
       id="polygon19" />
    <rect
       class="cls-6"
       x="55.259998"
       y="35.66"
       width="30.469999"
       height="19.16"
       rx="2.3599999"
       id="rect21" />
    <path
       class="cls-5"
       d="M 61.27,40.42 A 2.26,2.26 0 1 0 59,42.68 2.25,2.25 0 0 0 61.27,40.42 Z"
       id="path23" />
    <path
       class="cls-4"
       d="m 64.2,40.42 a 2.26,2.26 0 1 0 -2.26,2.26 2.25,2.25 0 0 0 2.26,-2.26 z"
       id="path25" />
    <path
       class="cls-2"
       d="m 67.13,40.42 a 2.26,2.26 0 1 0 -2.26,2.26 2.25,2.25 0 0 0 2.26,-2.26 z"
       id="path27" />
    <rect
       class="cls-4"
       x="56.759998"
       y="46.889999"
       width="11.43"
       height="2.28"
       id="rect29" />
    <rect
       class="cls-4"
       x="56.759998"
       y="50.470001"
       width="7.1399999"
       height="2.28"
       id="rect31" />
    <rect
       class="cls-4"
       x="64.300003"
       y="50.470001"
       width="4.8400002"
       height="2.28"
       id="rect33" />
    <path
       class="cls-4"
       d="m 82.48,39.3 h -0.13 -0.1 A 7.87,7.87 0 0 0 80.11,39 8.49,8.49 0 0 0 74,53.33 l 0.15,0.17 0.16,0.16 a 9.16,9.16 0 0 0 1.11,0.83 6,6 0 0 0 0.54,0.33 h 1.49 a 7.64,7.64 0 0 1 -1.41,-0.68 10.77,10.77 0 0 0 3.12,-0.55 l 0.5,-0.18 a 9.15,9.15 0 0 1 0.51,1.41 h 0.49 c 0,-0.19 -0.1,-0.37 -0.17,-0.56 a 10,10 0 0 0 -0.4,-1 11.19,11.19 0 0 0 3.34,-2.26 l 2.15,2.12 a 7.88,7.88 0 0 1 -2.73,1.69 h 0.53 a 2.35,2.35 0 0 0 2.34,-2.21 l -2,-1.94 a 11.27,11.27 0 0 0 2,-2.87 v -1.2 l -0.11,0.3 A 10.64,10.64 0 0 1 82.9,45 l 2.83,-2.87 V 41 a 10.13,10.13 0 0 0 -1.14,-0.8 8.65,8.65 0 0 0 -2.11,-0.9 z m -2.31,0.31 a 7.83,7.83 0 0 1 3.93,1.06 10.38,10.38 0 0 0 -3.06,0.55 l -0.64,0.23 a 10.56,10.56 0 0 1 -0.59,-1.83 z m -3,4.52 a 10.74,10.74 0 0 1 3,-2.07 11.12,11.12 0 0 0 2.06,2.94 l -2.08,2.1 z m 2.68,3.31 -2.25,2.25 a 11.25,11.25 0 0 0 -2.9,-2 10.54,10.54 0 0 1 2.11,-3.23 z m -0.48,-7.79 c 0.09,0.38 0.18,0.75 0.3,1.12 0.12,0.37 0.21,0.58 0.33,0.87 a 11.35,11.35 0 0 0 -3.2,2.16 l -2,-2 a 7.85,7.85 0 0 1 4.54,-2.15 z m -4.92,2.46 2,2 a 11.21,11.21 0 0 0 -2.2,3.37 c -0.3,-0.13 -0.62,-0.25 -0.93,-0.35 -0.31,-0.1 -0.67,-0.19 -1,-0.26 a 7.84,7.84 0 0 1 2.1,-4.76 z m -2.11,5.34 v -0.08 a 11,11 0 0 1 1.79,0.57 c 0,0.16 -0.11,0.31 -0.16,0.47 a 10.74,10.74 0 0 0 -0.51,3.08 7.81,7.81 0 0 1 -1.15,-4.04 z m 1.61,4.75 a 10.28,10.28 0 0 1 0.61,-4.06 10.49,10.49 0 0 1 2.71,1.86 l -2.79,2.83 A 7,7 0 0 1 73.92,52.2 Z m 1.45,1.46 c -0.19,-0.15 -0.37,-0.3 -0.55,-0.47 l 2.79,-2.83 a 10.84,10.84 0 0 1 1.85,2.64 10.41,10.41 0 0 1 -4.12,0.66 z m 4.55,-0.85 a 11.33,11.33 0 0 0 -2,-2.79 l 2.22,-2.24 2.93,2.89 a 10.44,10.44 0 0 1 -3.18,2.14 z m 5.52,-5.49 a 10.66,10.66 0 0 1 -2,3 l -2.93,-2.9 2.07,-2.1 a 11.28,11.28 0 0 0 2.83,2 z m 0.06,-5.62 -2.94,3 a 10.64,10.64 0 0 1 -2,-2.79 10.51,10.51 0 0 1 4.24,-0.74 7.1,7.1 0 0 1 0.67,0.53 z"
       id="path35" />
  </g>
</svg>
