<?xml version="1.0" encoding="UTF-8" standalone="no"?>
<svg
   id="Layer_1"
   data-name="Layer 1"
   viewBox="0 0 97.980007 97.98"
   version="1.1"
   sodipodi:docname="chart.svg"
   width="97.980003"
   height="97.980003"
   inkscape:version="1.1 (c4e8f9ed74, 2021-05-24)"
   xmlns:inkscape="http://www.inkscape.org/namespaces/inkscape"
   xmlns:sodipodi="http://sodipodi.sourceforge.net/DTD/sodipodi-0.dtd"
   xmlns="http://www.w3.org/2000/svg"
   xmlns:svg="http://www.w3.org/2000/svg">
  <sodipodi:namedview
     id="namedview48"
     pagecolor="#ffffff"
     bordercolor="#666666"
     borderopacity="1.0"
     inkscape:pageshadow="2"
     inkscape:pageopacity="0.0"
     inkscape:pagecheckerboard="0"
     showgrid="false"
     inkscape:zoom="6.7360684"
     inkscape:cx="49.806502"
     inkscape:cy="48.990002"
     inkscape:current-layer="Layer_1" />
  <defs
     id="defs7">
    <style
       id="style2">.cls-1{fill:#18627d;}.cls-2{clip-path:url(#clip-path);}.cls-3{fill:#55d6d2;}.cls-4{fill:#fff8e6;}.cls-5{fill:#f85b30;}.cls-6{fill:#fdb813;}</style>
    <clipPath
       id="clip-path">
      <circle
         class="cls-1"
         cx="48.990002"
         cy="48.990002"
         r="48.990002"
         transform="rotate(-9.36,48.988584,49.018542)"
         id="circle4" />
    </clipPath>
  </defs>
  <circle
     class="cls-1"
     cx="40.370152"
     cy="56.30534"
     r="48.990002"
     transform="rotate(-9.36)"
     id="circle9" />
  <g
     class="cls-2"
     clip-path="url(#clip-path)"
     id="g45"
     transform="translate(0.00466062,-1.4938852e-4)">
    <path
       class="cls-3"
       d="m 89,65.34 a 2,2 0 0 1 -1.59,2.37 l -67,13.19 A 2,2 0 0 1 18.05,79.32 L 9.47,35.63 a 2,2 0 0 1 1.58,-2.36 l 67,-13.2 a 2,2 0 0 1 2.36,1.59 z"
       id="path11" />
    <path
       class="cls-4"
       d="m 77.2,25.94 v -0.2 l -63.36,12.48 0.07,0.33 5,-1 1,5 -5,1 0.06,0.33 5,-1 1,5 -5,1 0.07,0.33 5,-1 1,5 -5,1 0.07,0.33 5,-1 1,5 -5,1 0.06,0.34 5,-1 1,5 -5,1 0.07,0.34 5,-1 1,5 -5,1 0.06,0.34 5,-1 1,4.92 0.33,-0.06 -1,-4.92 5,-1 1,4.92 0.33,-0.07 -1,-4.92 5,-1 1,4.93 0.33,-0.07 -1,-4.92 5,-1 1,4.92 0.33,-0.07 -1,-4.92 5,-1 1,4.92 0.33,-0.07 -1,-4.92 5,-1 1,4.92 L 53,69 l -1,-4.92 5,-1 1,4.92 0.34,-0.07 -1.04,-4.93 5,-1 1,4.92 0.34,-0.06 -1.04,-4.86 5,-1 1,4.92 0.34,-0.07 -1,-4.92 5,-1 1,4.93 0.33,-0.07 -1,-4.92 5,-1 1,4.92 0.33,-0.06 -1,-4.93 4.83,-1 1,4.92 0.34,-0.06 -7.41,-36.76 z m -34.68,18 5,-1 1,5 -5,1 z m 0.65,5 -5,1 -1,-5 5,-1 z m 4.65,-6.07 5,-1 1,5 -5,1 z m 5.3,-1 5,-1 1,5 -5,1 z m 5.3,-1.05 5,-1 1,5 -5,1 z m 5.3,-1 5,-1 1,5 -5,1 z m -0.07,-0.34 -1,-5 5,-1 1,5 z m -0.33,0.07 -5,1 -1,-5 5,-1 z m -5.3,1 -5,1 -1,-5 5,-1 z m -5.3,1 -5,1 -1,-5 5,-1 z m -5.3,1 -5,1 -1,-5 5,-1 z m -5.3,1 -5,1 -1,-5 5,-1 z m -5.3,1.05 -5,1 -1,-5 5,-1 z m 0.07,0.33 1,5 -5,1 -1,-5 z m 1,5.3 1,5 -5,1 -1,-5 z m 0.34,-0.06 5,-1 1,5 -5,1 z m 5.3,-1.05 5,-1 1,5 -5,1 z m 5.3,-1 5,-1 1,5 -5,1 z m 5.29,-1 5,-1 1,5 -5,1 z m 5.3,-1 5,-1 1,5 -5,1 z m 5.3,-1 5,-1 1,5 -5,1 z m 5.3,-1 5,-1 1,5 -5,1 z M 70,43.67 l -1,-5 5,-1 1,5 z m -1,-5.3 -1,-5 5,-1 1,5 z m -1,-5.3 -1,-5 5,-1 1,5 z m -0.34,0.07 -5,1 -1,-5 5,-1 z m -5.3,1 -5,1 -1,-5 5,-1 z m -5.29,1 -5,1 -1,-5 5,-1 z m -5.3,1.05 -5,1 -1,-5 5,-1 z m -5.3,1 -5,1 -1,-5 5,-1 z m -5.3,1 -5,1 -1,-5 5,-1 z m -5.3,1 -5,1 -1,-5 5,-1 z m -5.3,1.05 -5,1 -1,-5 5,-1 z m 0.07,0.33 1,5 -5,1 -1,-5 z m 1,5.3 1,5 -5,1 -1,-5 z m 1,5.3 1,5 -5,1 -1,-5 z m 1,5.3 1,5 -5,1 -1,-5 z m 0.33,-0.07 5,-1 1,5 -5,1 z m 5.3,-1 5,-1 1,5 -5,1 z m 5.3,-1 5,-1 1,5 -5,1 z m 5.3,-1 5,-1 1,5 -5,1 z m 5.3,-1 5,-1 1,5 -5,1 z m 5.3,-1 5,-1 1,5 -5,1 z m 5.3,-1 5,-1 1,5 -5,1 z m 5.33,-1.1 5,-1 1,5 -5,1 z m 5.3,-1 4.83,-0.95 1,5 -4.83,0.95 z m -0.06,-0.34 -1,-5 4.83,-1 1,5 z m -1,-5.3 -1,-5 4.83,-0.95 1,5 z m -1,-5.3 -1,-5 4.83,-0.95 1,5 z m -1,-5.29 -1,-5 4.83,-0.95 1,5 z m -54,5.47 5,-1 1,5 -5,1 z m 1,5.3 5,-1 1,5 -5,1 z m 1,5.3 5,-1 1,5 -5,1 z m 1,5.3 5,-1 1,5 -5,1 z m 1.05,5.3 5,-1 1,5 -5,1 z m 2,10.26 -1,-5 5,-1 1,5 z m 5.3,-1 -1,-5 5,-1 1,5 z m 5.3,-1 -1,-5 5,-1 1,5 z m 5.3,-1 -1,-5 5,-1 1,5 z m 5.29,-1 -1,-5 5,-1 1,5 z m 5.3,-1.05 -1,-5 5,-1 1,5 z m 5.3,-1 -1,-5 5,-1 1,5 z m 5.3,-1.05 -1,-5 5,-1 1,5 z m 5.3,-1 -1,-5 5,-1 1,5 z m 5.3,-1 -1,-5 5,-1 1,5 z m 5.3,-1 -1,-5 4.83,-1 1,5 z"
       id="path13" />
    <polygon
       class="cls-5"
       points="13.67,38.25 20.96,75.25 21,75.42 21.03,75.59 84.67,63.05 84.6,62.71 21.3,75.19 14.01,38.19 "
       id="polygon15" />
    <path
       class="cls-5"
       d="m 21.52,75.4 a 0.37,0.37 0 0 1 -0.18,0 0.35,0.35 0 0 1 -0.21,-0.44 l 2.36,-6.89 a 0.36,0.36 0 0 1 0.56,-0.14 l 2.44,2.28 2.8,-9.42 a 0.36,0.36 0 0 1 0.1,-0.15 l 4.72,-4.48 a 0.33,0.33 0 0 1 0.39,0 l 6.8,3.69 1.49,-6.85 a 0.32,0.32 0 0 1 0.21,-0.24 0.36,0.36 0 0 1 0.32,0 l 3,2.13 3,-9.73 a 0.34,0.34 0 0 1 0.25,-0.23 0.33,0.33 0 0 1 0.32,0.1 l 5.37,5.53 1.34,-5.18 a 0.31,0.31 0 0 1 0.08,-0.15 L 60,41.91 a 0.34,0.34 0 0 1 0.28,-0.11 l 6.77,0.78 4.41,-10.48 a 0.34,0.34 0 0 1 0.45,-0.19 0.35,0.35 0 0 1 0.18,0.45 l -4.55,10.72 a 0.33,0.33 0 0 1 -0.35,0.2 l -6.85,-0.78 -3.09,3.19 -1.47,5.68 A 0.35,0.35 0 0 1 55.2,51.52 L 49.81,46 46.88,55.62 a 0.37,0.37 0 0 1 -0.22,0.22 0.38,0.38 0 0 1 -0.31,0 l -3,-2.1 -1.48,6.71 a 0.31,0.31 0 0 1 -0.19,0.24 0.37,0.37 0 0 1 -0.31,0 l -7,-3.8 -4.48,4.26 -2.89,9.77 a 0.38,0.38 0 0 1 -0.24,0.24 0.33,0.33 0 0 1 -0.32,-0.08 l -2.44,-2.3 -2.2,6.4 a 0.35,0.35 0 0 1 -0.28,0.22 z"
       id="path17" />
    <polygon
       class="cls-5"
       points="69.66,31.98 73.42,33.58 72.92,29.52 "
       id="polygon19" />
    <polygon
       class="cls-4"
       points="92.38,73.8 81.79,79.23 78.23,69.72 73.51,64.55 79.34,55.1 78.66,51.74 87.94,50.06 "
       id="polygon21" />
    <path
       class="cls-4"
       d="m 78.66,51.74 9.28,-1.68 1.84,17.22 a 6.9,6.9 0 0 0 -2.54,-0.11 32.26,32.26 0 0 0 -5.1,0.39 c -1.89,0.32 -2.52,0.13 -4.39,0.31 l -3.37,-3.39 0.43,-8.58 5.38,-1.64 z"
       id="path23" />
    <path
       class="cls-4"
       d="M 87.94,50.06 77.31,42.41 70.07,41.89 c 0,0 -6,1.59 -7.19,2.38 -0.58,0.4 -0.94,2.12 1.34,2.7 1.4,0.36 4.35,-1.07 4.35,-1.07 l 3.9,1 4,3 2.64,4.26 7.54,-1.89 z"
       id="path25" />
    <polygon
       class="cls-6"
       points="99.59,83.67 82.09,92.64 76.29,73.05 94.42,67.87 "
       id="polygon27" />
    <rect
       class="cls-1"
       x="84.690002"
       y="52.939999"
       width="3.3699999"
       height="1.4400001"
       transform="rotate(-75.34,86.372348,53.659926)"
       id="rect29" />
    <rect
       class="cls-6"
       x="67"
       y="39.689999"
       width="3.3699999"
       height="18.700001"
       transform="rotate(-75.35,68.686612,49.039144)"
       id="rect31" />
    <rect
       class="cls-6"
       x="67"
       y="39.689999"
       width="3.3699999"
       height="18.700001"
       transform="rotate(-75.35,68.686612,49.039144)"
       id="rect33" />
    <polygon
       class="cls-1"
       points="67.4,50.44 68.25,47.19 68.68,46.82 67.6,50.97 "
       id="polygon35" />
    <rect
       class="cls-5"
       x="75.040001"
       y="41.91"
       width="4.29"
       height="18.690001"
       transform="rotate(-75.35,77.183992,51.259609)"
       id="rect37" />
    <polygon
       class="cls-1"
       points="60.08,45.05 59.22,48.3 56.45,45.84 "
       id="polygon39" />
    <path
       class="cls-1"
       d="M 82.45,55.25 82.11,55.17 77.7,54 h -0.23 a 4.35,4.35 0 0 0 -1,-0.13 c -0.78,0 -1.63,0.62 -1.24,1.15 0.39,0.53 1,-0.27 1.7,0 l 0.49,0.13 4.41,1.15 0.92,0.24 a 0.51,0.51 0 0 0 0.62,-0.36 v -0.09 l 1.31,-5 -1.07,-0.28 z"
       id="path41" />
    <path
       class="cls-4"
       d="m 67,57.46 c 0,0 -3.18,-5.46 -3.75,-6.46 -1.23,-2.15 0.39,-3.57 2.14,-2.78 0.83,0.37 4,4.74 4,4.74 l 4.07,3 2.6,-0.43 6.58,12.74 -4.93,0.84 z"
       id="path43" />
  </g>
</svg>
