<?xml version="1.0" encoding="UTF-8" standalone="no"?>
<svg
   id="Layer_1"
   data-name="Layer 1"
   viewBox="0 0 98.000001 97.999997"
   version="1.1"
   sodipodi:docname="deal.svg"
   width="98"
   height="98"
   inkscape:version="1.1 (c4e8f9ed74, 2021-05-24)"
   xmlns:inkscape="http://www.inkscape.org/namespaces/inkscape"
   xmlns:sodipodi="http://sodipodi.sourceforge.net/DTD/sodipodi-0.dtd"
   xmlns="http://www.w3.org/2000/svg"
   xmlns:svg="http://www.w3.org/2000/svg">
  <sodipodi:namedview
     id="namedview40"
     pagecolor="#ffffff"
     bordercolor="#666666"
     borderopacity="1.0"
     inkscape:pageshadow="2"
     inkscape:pageopacity="0.0"
     inkscape:pagecheckerboard="0"
     showgrid="false"
     inkscape:zoom="6.7360684"
     inkscape:cx="49.064229"
     inkscape:cy="48.990002"
     inkscape:current-layer="Layer_1" />
  <defs
     id="defs7">
    <style
       id="style2">.cls-1{fill:none;}.cls-2{fill:#f85b30;}.cls-3{clip-path:url(#clip-path);}.cls-4{fill:#fff8e6;}.cls-5{fill:#fdb813;}.cls-6{fill:#55d6d2;}.cls-7{fill:#18627d;}</style>
    <clipPath
       id="clip-path">
      <path
         class="cls-1"
         d="m 102.87,49 a 49,49 0 1 0 -49,49 49,49 0 0 0 49,-49 z"
         id="path4" />
    </clipPath>
  </defs>
  <path
     class="cls-2"
     d="M 98,49 A 49,49 0 1 0 49,98 49,49 0 0 0 98,49 Z"
     id="path9" />
  <g
     class="cls-3"
     clip-path="url(#clip-path)"
     id="g37"
     transform="translate(-4.87)">
    <polygon
       class="cls-4"
       points="78.56,60.5 70.33,57.78 58.37,34.52 75.03,32.04 87.57,27.85 99.68,49.71 84.57,54.04 "
       id="polygon11" />
    <path
       class="cls-5"
       d="m 55.08,69.87 a 4.63,4.63 0 0 1 -2,-6.24 v 0 a 4.64,4.64 0 0 1 6.24,-2 l 12.55,7.08 a 4.63,4.63 0 0 1 2,6.24 v 0 a 4.64,4.64 0 0 1 -6.24,2 z"
       id="path13" />
    <path
       class="cls-5"
       d="M 50.72,76.84 A 4.33,4.33 0 0 1 48.86,71 v 0 a 4.34,4.34 0 0 1 5.86,-1.87 l 11.78,6.64 a 4.35,4.35 0 0 1 1.86,5.86 v 0 a 4.34,4.34 0 0 1 -5.86,1.86 z"
       id="path15" />
    <path
       class="cls-5"
       d="m 26.35,31.38 11,4.08 c 0,0 9.72,-1.94 10.27,-2 l 6.38,6.35 15,6.82 10.89,5.75 A 41.24,41.24 0 0 1 74.2,62.49 c -2.3,3.06 -4.2,9.95 -7.31,14.09 -2.2,2.92 -2.94,5.73 -6.7,5 C 51.13,79.89 33.88,67.06 31.26,65.13 31.18,65.07 26.43,58.46 26.43,58.46 l -13.89,-7 z"
       id="path17" />
    <path
       class="cls-5"
       d="m 60.06,62.83 a 4.69,4.69 0 0 1 -2.19,-6.26 v 0 a 4.68,4.68 0 0 1 6.31,-2 l 13,7 a 4.69,4.69 0 0 1 2.19,6.26 v 0 a 4.68,4.68 0 0 1 -6.31,2 z"
       id="path19" />
    <path
       class="cls-5"
       d="m 63.3,54.55 a 4.82,4.82 0 0 1 -2.4,-6.38 v 0 a 4.82,4.82 0 0 1 6.42,-2.28 l 13.39,6.57 a 4.82,4.82 0 0 1 2.39,6.38 v 0 a 4.82,4.82 0 0 1 -6.38,2.4 l -1.5,-0.66 z"
       id="path21" />
    <path
       class="cls-4"
       d="m 66.4,45.47 -13.17,-5 -5.55,1.53 c -0.49,7.71 -7.52,7.24 -8.69,7.1 -1.17,-0.14 -0.64,-3 -0.64,-3 L 42.66,33.4 57.11,30 c 3.14,0.61 16.6,2.27 16.6,2.27 z"
       id="path23" />
    <path
       class="cls-4"
       d="M 38.11,71.83 A 3.82,3.82 0 0 1 32.85,73 v 0 a 3.83,3.83 0 0 1 -1.76,-5.1 l 3.17,-5.66 a 3.83,3.83 0 0 1 5.27,-1.18 v 0 a 3.83,3.83 0 0 1 1.75,5.11 z"
       id="path25" />
    <path
       class="cls-4"
       d="m 45.31,75.64 a 4.08,4.08 0 0 1 -5.52,1.63 v 0 a 4.08,4.08 0 0 1 -1.5,-5.56 l 3.64,-6.49 a 4.07,4.07 0 0 1 5.52,-1.63 v 0 A 4.07,4.07 0 0 1 49,69.15 Z"
       id="path27" />
    <path
       class="cls-4"
       d="m 52.49,79.45 a 3.88,3.88 0 0 1 -5.33,1.28 v 0 a 3.87,3.87 0 0 1 -1.69,-5.21 l 3.29,-5.87 a 3.88,3.88 0 0 1 5.33,-1.29 v 0 a 3.89,3.89 0 0 1 1.69,5.22 z"
       id="path29" />
    <path
       class="cls-4"
       d="m 59,83.22 c -0.84,1.48 -3,1.88 -4.76,0.87 v 0 c -1.79,-1 -2.58,-3 -1.74,-4.51 l 2.72,-4.87 c 0.83,-1.48 3,-1.88 4.76,-0.87 v 0 c 1.79,1 2.57,3 1.74,4.51 z"
       id="path31" />
    <polygon
       class="cls-6"
       points="10.35,21.78 0,52.49 19.78,58.92 30.68,28.88 "
       id="polygon33" />
    <polygon
       class="cls-7"
       points="108.03,49.12 96.99,21.78 76.71,28.93 87.31,56.61 "
       id="polygon35" />
  </g>
</svg>
