<svg xmlns="http://www.w3.org/2000/svg" width="47" height="68" viewBox="0 0 47 68"><g><g opacity=".3"><path fill="#bebebe" d="M.506 8.575c.252-2.339 1.505-3.673 2.86-4.909C5.9 3.581 6.354 5.582 7.852 6.53 11.207 4.025 15.214 0 20.101.394c3.716 2.141 5.836 5.88 7.347 10.227-2.076 3.781-9.23 2.478-9.797 7.774 6.018.136 16.215-.83 20.41 2.453 2.426 3.77 7.702 8.204 8.568 13.91C48 43.703 42.91 51.478 36.427 54.391c.871 3.356 3.46 4.993 4.083 8.594-1.157 3.34-3.979 5.013-8.571 4.906-3.199-2.793-3.925-8.066-6.533-11.454-4.873.25-8.655-.597-11.021-2.862.229-2.91-.486-6.762.408-9.001 2.008-1.152 3.194.486 5.308.41-2.174-5.321-5.674-9.313-8.571-13.91C2.23 31.807-1 20.52 2.958 13.075c.078-2.396-2.46-2.171-2.452-4.499zm27.35 29.865c1.259-3.147-.237-6.407-3.677-6.135.936 2.336 1.825 4.72 3.677 6.135z"/></g></g></svg>