<svg id="Objects" xmlns="http://www.w3.org/2000/svg" viewBox="0 0 351.81 382.39"><defs><style>.cls-1,.cls-2{fill:none;stroke:#fff;stroke-miterlimit:10;}.cls-1{stroke-width:19px;}.cls-2{stroke-width:6px;}.cls-3{font-size:77px;fill:#fff;font-family:Poppins-Medium, Poppins;font-weight:500;}</style></defs><polygon class="cls-1" points="329.92 177.4 24.23 177.4 177.08 13.91 329.92 177.4"/><polygon class="cls-2" points="72.61 157.39 177.08 45.65 281.54 157.39 72.61 157.39"/><text class="cls-3" transform="translate(154.16 136.31)">$</text><line class="cls-1" x1="54.5" y1="220.39" x2="54.5" y2="329.39"/><line class="cls-1" x1="95.5" y1="220.39" x2="95.5" y2="329.39"/><line class="cls-2" x1="75" y1="220.39" x2="75" y2="329.39"/><line class="cls-2" x1="105" y1="211.39" x2="45" y2="211.39"/><line class="cls-2" x1="105" y1="199.39" x2="45" y2="199.39"/><line class="cls-2" x1="105" y1="350.39" x2="45" y2="350.39"/><line class="cls-2" x1="105" y1="338.39" x2="45" y2="338.39"/><line class="cls-1" x1="156.5" y1="220.39" x2="156.5" y2="329.39"/><line class="cls-1" x1="197.5" y1="220.39" x2="197.5" y2="329.39"/><line class="cls-2" x1="177" y1="220.39" x2="177" y2="329.39"/><line class="cls-2" x1="207" y1="211.39" x2="147" y2="211.39"/><line class="cls-2" x1="207" y1="199.39" x2="147" y2="199.39"/><line class="cls-2" x1="207" y1="350.39" x2="147" y2="350.39"/><line class="cls-2" x1="207" y1="338.39" x2="147" y2="338.39"/><line class="cls-1" x1="258.5" y1="220.39" x2="258.5" y2="329.39"/><line class="cls-1" x1="299.5" y1="220.39" x2="299.5" y2="329.39"/><line class="cls-2" x1="279" y1="220.39" x2="279" y2="329.39"/><line class="cls-2" x1="309" y1="211.39" x2="249" y2="211.39"/><line class="cls-2" x1="309" y1="199.39" x2="249" y2="199.39"/><line class="cls-2" x1="309" y1="350.39" x2="249" y2="350.39"/><line class="cls-2" x1="309" y1="338.39" x2="249" y2="338.39"/><line class="cls-1" y1="372.89" x2="351" y2="372.89"/></svg>