<svg xmlns="http://www.w3.org/2000/svg" width="53" height="51" viewBox="0 0 53 51"><g><g opacity=".25"><path fill="#bebebe" d="M12.872 48.504c6.38-16.78 14.695-31.611 21.42-48.04.169-.216.419-.353.691-.465 2.556.441 5.047.95 6.91 2.09-.79 3.696-2.755 8.201-4.147 12.066-4.816 11.857-9.696 23.648-14.28 35.74-3.474.394-8.334.208-10.594-1.39zM.895 18.102c-.645-4.982 1.26-7.396 2.072-10.91 1.735-1.422 3.318-2.998 5.99-3.48-.044-.197.09-.219.23-.231 5.31.218 8.51 2.564 10.364 6.265 1.652 7.97-1.928 12.573-7.37 14.158-3.144.472-6.688-.278-8.753-1.623-1.04-1.2-1.827-2.647-2.533-4.18zm6.679-3.715c1.389 1.108 3.39.015 3.915-1.16.008-3.288-4.032-1.051-3.915 1.16zm26.949 19.96c2.211-1.718 3.647-4.215 6.45-5.34-.045-.194.09-.216.23-.23 1.338.118 3.176-.262 4.145.23 3.873 1.515 5.681 5.108 7.14 9.053.512 7.323-2.171 11.428-7.831 12.531-9.374.408-15.243-8.244-10.134-16.244zm8.983 6.962c.138-.555.33-1.06.23-1.856-.854-.509-2.564-.194-3.225.232-.06 1.59 1.658 2.159 2.995 1.624z"/></g></g></svg>