<svg xmlns="http://www.w3.org/2000/svg" width="64" height="45" viewBox="0 0 64 45"><g><g opacity=".5"><path fill="#bebebe" d="M1.243 17.591c-.505-.88-1.273-2.315-1.08-3.38-.039-.911.967-.085 1.234-.46C6.4 10.742 12.77 9.095 18.366 6.68c2.651 1.457 4.956 3.259 7.559 4.764 9.392-4.063 20.304-6.613 30.85-9.526.37-1.337 2.27-1.922 3.548-1.843 1.093 1.01.618 3.02.618 4.609 0 4.76.24 10.725-.31 15.057-7.035 1.903-14.31 3.568-21.132 5.686 1.275 3.34 3.495 5.737 4.936 8.912 5.841-1.103 11.11-3.575 17.277-3.842.869 1.08 1 2.896 2.16 3.686.085 1.01-.885.964-1.235 1.537.59 1 1.241 1.94 1.08 3.69-1.225 3.569-8.336 2.372-6.324-2.767-2.529.4-4.52 1.336-6.941 1.844.195 1.151 2.228 1.764 1.696 4.147-1.23 3.358-9.045 2.29-7.867-1.997-.201-.337-.834.182-1.235.155-2.998-5.516-6.324-10.705-9.409-16.134-4.776-4.564-9.384-9.296-15.117-12.907-6.342 1.366-10.829 4.58-17.277 5.84z"/></g></g></svg>