<svg xmlns="http://www.w3.org/2000/svg" width="83" height="91" viewBox="0 0 83 91"><g><g opacity=".4"><path fill="#bebebe" d="M22.409 17.718c-.714-.924-1.844-1.743-1.998-2.748 5.12-4.355 12.106-8.801 18.08-12.679.119-.032.673-.023.437.18.338.706 1.594 2.139 1.708 2.784-3.049 2.184-6.464 4.296-9.13 6.556 4.913 4.755.387 9.787-5.102 11.871-.752-.538-1.839-1.73-2.18-2.783 1.51-1.32 5.643-4.203 4.128-6.047-1.372-1.67-4.13 2.355-5.943 2.866zm33.445 72.913c-3.018-.734-6.97-3.22-8.457-7.695.111-3.089 3.244-7.234 7.313-8.326.857.807 2.473 2.111 2.617 3.432-1.533.922-2.961 2.332-3.297 3.765.31 1.033.635 2.07 1.528 3.217 3.345 1.625 8.088.865 11.854-2.724-1.9-1.054-3.706-3.739-3.379-5.748.498-3.975 6.347-7.505 10.364-7.536 2.234.031 5.436 2.777 5.01 5.603.352.285.893-.378 1.269-.218.355 1.255 1.974 2.212 2.324 3.467-.222.524-.987.417-1.486.835-3.171 1.85-6.098 4.131-8.985 6.303-5.532 4.159-11.522 6.878-16.675 5.625zm15.07-14.123c.927.499 2.547-.286 3.008-1.379-.506-2.39-4.179-.395-3.009 1.379zm-13.428-7.832c-1.067-.721-2.364-2.517-3.013-3.796a172.1 172.1 0 0 1 11.158-9.162c.629.714 1.817.793 2.612 2.021a10.256 10.256 0 0 1-2.061 2.317c2.356-.319 4.684-.492 6.312 2.852.106 4.305-5.84 8.334-10.142 11.15-.802-.43-1.922-1.628-2.288-2.71 1.986-2.427 6.11-4.429 5.976-7.276-2.863-1.542-5.456 3.605-8.554 4.604zm7.38-15.744c-1.17.596-2.091 1.701-3.042 2.029-.163-.606-.783-2.004-1.382-3 .677-.655 2.151-1.812 3.008-1.849.703.744 1.738 2.007 1.417 2.82zM54.494 42.13c2.185 3.164 2.405 5.93 2.15 8.607-3.234 5.123-9.987 5.247-12.477-.782-1.273.451-2.405 1.604-3.615 2.445.26.363.455.737.435 1.138-.79.566-2.116 1.417-3.08 2.211-.435.979 1.06 2.342 1.2 3.435-.868.738-2.452 1.812-3.477 1.847-.611-.406-1.157-1.138-1.707-1.842-2.832 1.85-7.622 4.145-10.255 6.522-.405.366-.8.8-.833 1.34.761.434 1.795-.49 2.574-.147.872.75 1.339 2.197 1.273 3.072-2.729 2.755-5.59 2.239-7.797.804-4.23-6.566 6.588-11.367 12.64-15.17-.207-1.171-1.693-2.011-1.961-2.926.696-.77 1.497-1.519 2.607-2.207 1.26.463 2.555.744 3.665 1.948a25.47 25.47 0 0 1 1.572-1.032c-.282-.372-.563-.744-.854-1.067.328-1.507 2.166-2.228 3.55-3.151 4.523-3.015 9.108-5.797 13.624-8.768.707.71 1.38 1.593 2.033 2.566-.1.45-.708.802-1.267 1.157zm-4.248-4.697c-.486 1.98-2.525 4.416-5.215 5.359-2.418.304-4.525-.94-6.387-3.427-2.148 1.829-5.03 3.516-6.92 5.397-1.275-.79-3.044-2.209-3.593-3.721 5.771-4.53 11.447-9.577 16.63-13.909 1.127.323 2.069 1.594 3.082 2.493.587.775-.477 1.22-1.012 1.773 1.842 1.4 3.843 3.969 3.415 6.035zm-6.314-3.319a8.986 8.986 0 0 0-1.739 1.63c.56.979 1.203 1.53 2.032 1.154.882-.767.92-2.155-.293-2.784zm-7.232-14.786c1.475.167 2.93.439 4.172 1.77.079-.081.13-.027.18.035 2.522 3.632-.636 9.154-5.499 10.096-1.757.34-3.392-.703-4.862-1.62-3.865-4.643 1.046-9.35 6.009-10.28zm-2.386 7.238c.749.255 2.304-.637 2.465-1.486-.917-2.254-4.225-.365-2.465 1.486zm-9.738-17.35c-3.815 6.59-14.563-.96-8.238-5.96 1.031.03 1.99.425 2.865 1.228.327.88-.418 1.548.258 2.495.301.371.703.248 1.088.216 1.734-1.82.09-4.308 1.333-6.223 3.223-1.972 6.05.54 7.876 4.007-.452.67-1.644 1.562-2.175 1.92-.833-.395-1.416-2.033-2.396-1.7-.89 1.204-.444 2.67-.611 4.018zm33.882 43.763c1.006.156 1.789 1.43 2.58 2.673-2.555 2.314-5.543 4.54-8.877 6.7-.83-.732-1.623-1.636-2.397-2.637 2.069-2.386 5.902-4.793 8.694-6.736zM14.922 29.189c.552-1.393.655-2.876 1.409-4.232 2.059.548 4.388-.263 6.527-.115 1.091 1.138 3.173 1.852 3.522 3.613-2.99 1.37-7.823 4.374-12.032 6.92-3.134 1.897-5.738 3.446-6.846 5.975-.336.906.22 1.989.075 2.93-1.233.647-3.485 2.38-5 2.864C.692 46.45 0 43.68.611 42.337c2.842-4.764 9.097-8.853 14.31-13.148zm3.055 8.318c.863-1.522 3.315-2.443 4.242-.005.102.99-.237 1.896-1.01 2.713-1.66 1.129-3.732-1.025-3.232-2.708zm-.453 15.985c1.276-2.003-.641-4.64-.154-6.8 2.908-4.653 8.612-2.464 11.063 1.254-.7 1.006-1.398 2.593-2.79 2.643-.971-.641-1.823-1.887-3.01-1.441-1.067.885-.565 2.08-.541 3.182-.443 1.183-.302 2.327-.868 3.402-1.907 3.63-6.684 3.887-9.316 2.288-.869-.689-2.264-2.153-2.434-3.396-.232-2.054.772-3.859 2.786-5.465.93.233 1.702 1.235 2.47 2.275-.1.701-1.224 1.198-1.049 1.955.96 1.64 2.313 1.316 3.843.103zM3.667 48.77c3.615-3.147 8.485-7.303 12.898-9.383.951.854 1.289 2.214 1.527 3.217-4.363 3.03-8.779 7.026-12.645 9.527-.912-.818-1.49-2.353-1.78-3.36z"/></g></g></svg>